<svg xmlns="http://www.w3.org/2000/svg" xmlns:xlink="http://www.w3.org/1999/xlink" viewBox="0 0 141.732 172.913" width="46" height="56" fill="#fff"><defs><path id="a" d="M1.226 1.402h139v171h-139z"/></defs><clipPath id="b"><use xlink:href="#a" overflow="visible"/></clipPath><path d="M121.371 115.257c5.953 4.325 8.765 17.079 9.351 21.637l4.438 33.485 4.636-.61-4.433-33.523c-.094-.739-2.442-18.399-11.223-24.731a47.314 47.314 0 0 0-9.402-4.867 2.239 2.239 0 0 0-.649-.355l-1.933-.684a142.636 142.636 0 0 0-8.887-3.094l-1.809-.633a2.2 2.2 0 0 0-.55-.125 232.628 232.628 0 0 0-11.489-3.289v-5.117a26.582 26.582 0 0 0 11.129-21.637v-3.941a7.366 7.366 0 0 0 2.426.445 7.067 7.067 0 0 0 7.066-7.066v-6.305a6.967 6.967 0 0 0-1.765-4.633 7.275 7.275 0 0 0 1.105-4.011v-2.692a8.036 8.036 0 0 0-1.738-5.437 4.88 4.88 0 0 0-2.348-1.36c-.554-6.386-3.586-25.132-19.754-32.457h-.14A35.245 35.245 0 0 0 72.093 1.41h-1.344a37.199 37.199 0 0 0-12.875 2.023h-.109c-17.902 6.586-21.129 26.59-21.637 33.219a4.856 4.856 0 0 0-2.351 1.359 7.929 7.929 0 0 0-1.871 5.442v2.769a7.186 7.186 0 0 0 1.093 4 7.058 7.058 0 0 0-1.761 4.645v6.316a7.066 7.066 0 0 0 7.066 7.063c.832 0 1.649-.153 2.422-.446v3.957A26.626 26.626 0 0 0 51.66 93.214v5.254a226.698 226.698 0 0 0-24.395 7.852h-.105a49.917 49.917 0 0 0-10.051 5.133c-8.781 6.394-11.125 24.035-11.223 24.734L1.453 169.73l4.636.602 4.438-33.543c.59-4.547 3.394-17.285 9.273-21.645a35.123 35.123 0 0 1 5.922-3.168v20.09c-3.418 1.258-7.726 4.77-7.726 12.188v25.832a2.316 2.316 0 0 0 2.316 2.316h100.734a2.314 2.314 0 0 0 2.313-2.316v-25.789c0-7.418-4.336-10.926-7.727-12.18v-20.09a34.02 34.02 0 0 1 5.739 3.23zm-15.922-60.41v6.325a2.428 2.428 0 0 1-2.61 2.226 2.436 2.436 0 0 1-2.226-2.226v-6.325a2.433 2.433 0 0 1 2.226-2.617 2.43 2.43 0 0 1 2.61 2.227c.015.129.015.261 0 .39zM73.917 6.156c2.821.215 5.602.828 8.258 1.805v11.734a11.378 11.378 0 0 1-8.258 4.836V6.156zm-12.89 1.16a33.143 33.143 0 0 1 8.258-1.269v18.546a11.36 11.36 0 0 1-8.258-4.839V7.316zm-20.36 53.836a2.427 2.427 0 0 1-2.609 2.227 2.428 2.428 0 0 1-2.227-2.227v-6.305a2.432 2.432 0 0 1 2.227-2.617 2.43 2.43 0 0 1 2.609 2.617v6.305zm-2.425-13.383c-.442 0-.868.043-1.293.121a2.405 2.405 0 0 1-.469-1.687v-2.809a3.72 3.72 0 0 1 .543-2.09.425.425 0 0 1 .328-.086h.891a2.324 2.324 0 0 0 2.32-2.324c0-1.082.305-21.644 15.812-29.715v11.137c0 .344.079.68.227.988.16.321 3.941 8.039 14.98 8.039 11.036 0 14.829-7.73 14.981-8.039.141-.308.223-.644.211-.988V10.297c13.594 8.671 13.918 27.558 13.918 28.597a2.323 2.323 0 0 0 2.316 2.324h.899c.226 0 .277 0 .32.086a3.75 3.75 0 0 1 .543 2.141v2.758a2.313 2.313 0 0 1-.496 1.687 6.894 6.894 0 0 0-6.254 1.922H43.261a6.981 6.981 0 0 0-5.004-2.027l-.015-.016zm7.066 23.988V54.449h50.699v17.308c-.019 12.153-9.879 21.989-22.027 21.977H67.3c-12.136-.004-21.976-9.836-21.992-21.977zm39.535 24.286v3.425l-14.219 18.18-14.378-18.18v-3.523A26.336 26.336 0 0 0 67.3 98.39h6.68c3.746 0 7.453-.804 10.863-2.347zm-41.996 9.754a265.4 265.4 0 0 1 10.203-2.895l17.606 22.262 17.406-22.262c2.004.527 5.871 1.543 10.391 2.953v26.555H42.796l.051-26.613zm75.883 38.5v23.511H22.628v-23.511c0-6.997 5.18-8.004 5.735-8.102a2.313 2.313 0 0 0 1.996-2.297V110.09c2.547-.989 5.254-1.93 7.883-2.782v27.422a2.321 2.321 0 0 0 2.32 2.324h60.281a2.324 2.324 0 0 0 2.321-2.324v-27.375l7.804 2.735v23.808c0 1.16.863 2.152 2.008 2.297.238.031 5.754.859 5.754 8.102zm0 0" clip-path="url(#b)"/><path d="M27.996 141.379h12.516v4.156H27.996zm72.773 0h12.523v4.156h-12.523z"/></svg>