<svg xmlns="http://www.w3.org/2000/svg" viewBox="-49 141 512 512" width="40" height="40" fill="#fff"><path d="M449.791 302.127c-17.545-17.546-46.094-17.545-63.645.004l-45.128 45.166V228.426c0-12.02-4.681-23.32-13.181-31.819l-42.425-42.427c-8.499-8.5-19.8-13.18-31.82-13.18H-3.982c-24.813 0-45 20.187-45 45v422c0 24.813 20.187 45 45 45h300c24.813 0 45-20.187 45-45V474.631L449.79 365.767c17.587-17.586 17.591-46.052.001-63.64zm-151.2 172.513l-8.103 8.103-31.819 10.606 10.606-31.82 8.103-8.102 21.213 21.213zm21.209-21.218l-21.213-21.213 72.105-72.166 21.213 21.213-72.105 72.166zm-55.601-278.029l42.426 42.427c4.76 4.761 4.394 9.978 4.394 13.18h-60v-60c2.834 0 8.295-.491 13.18 4.393zM296.018 623h-300c-8.271 0-15-6.729-15-15V186c0-8.271 6.729-15 15-15h225v75c0 8.284 6.716 15 15 15h75v116.323l-44.256 44.293-21.203 21.204a15 15 0 0 0-3.624 5.863l-21.214 63.64a14.999 14.999 0 1 0 18.974 18.974l63.64-21.213a14.988 14.988 0 0 0 5.863-3.624l1.82-1.82V608c0 8.271-6.728 15-15 15zm132.555-278.442l-15.463 15.476-21.213-21.213 15.468-15.481c5.852-5.849 15.366-5.848 21.214 0 5.847 5.85 5.878 15.333-.006 21.218z"/><path d="M26.018 321h210c8.284 0 15-6.716 15-15s-6.716-15-15-15h-210c-8.284 0-15 6.716-15 15s6.716 15 15 15zm0 60h150c8.284 0 15-6.716 15-15s-6.716-15-15-15h-150c-8.284 0-15 6.716-15 15s6.716 15 15 15zm0 60h150c8.284 0 15-6.716 15-15s-6.716-15-15-15h-150c-8.284 0-15 6.716-15 15s6.716 15 15 15zm165 45c0-8.284-6.716-15-15-15h-150c-8.284 0-15 6.716-15 15s6.716 15 15 15h150c8.284 0 15-6.716 15-15zm45 77h-90c-8.284 0-15 6.716-15 15s6.716 15 15 15h90c8.284 0 15-6.716 15-15s-6.716-15-15-15z"/></svg>