<svg xmlns="http://www.w3.org/2000/svg" xmlns:xlink="http://www.w3.org/1999/xlink" viewBox="0 0 12.756 11.339"><defs><path id="a" d="M.378.669h12v10h-12z"/></defs><clipPath id="b"><use xlink:href="#a" overflow="visible"/></clipPath><path d="M4.698 4.431a.55.55 0 0 1-.55.55.552.552 0 1 1 .55-.55zm-.496 3.785l.121 2.039c0 .07.059.129.129.129a.13.13 0 0 0 .129-.129l.113-2.039h.36l-.371-2.289.75 1.496a.127.127 0 0 0 .168.07.133.133 0 0 0 .07-.172s-.551-1.488-.688-1.765c-.132-.278-.269-.446-.785-.446h-.105c-.516 0-.649.168-.785.446-.137.277-.688 1.765-.688 1.765a.133.133 0 0 0 .07.172.127.127 0 0 0 .168-.07l.75-1.496-.371 2.289h.36l.113 2.039c0 .07.059.129.129.129a.128.128 0 0 0 .129-.129l.113-2.039h.121zm4.41-4.34a.553.553 0 0 0-.554.551c0 .304.25.551.554.551a.55.55 0 1 0 0-1.102zm.575 3.254l.035-1.203.676 1.496c.027.066.105.094.171.066a.126.126 0 0 0 .067-.168s-.473-1.488-.61-1.765c-.136-.278-.343-.446-.863-.446h-.105c-.516 0-.727.168-.86.446-.136.277-.613 1.765-.613 1.765a.128.128 0 0 0 .07.168.135.135 0 0 0 .172-.066l.676-1.496.035 1.203-.105 3.019a.219.219 0 0 0 .199.235h.016c.113 0 .21-.086.218-.203l.246-2.336.246 2.336a.215.215 0 0 0 .215.203h.016a.219.219 0 0 0 .203-.235L9.187 7.13zm-2.809.105a.34.34 0 0 0-.34.34c0 .188.152.336.34.336.188 0 .34-.148.34-.336a.34.34 0 0 0-.34-.34zm0 1.996l.152 1.063c.02.051.071.09.129.09a.142.142 0 0 0 .133-.098s.004-.066 0-.074L6.73 8.907l.019-.445c.016-.152.02-.109.195-.211.176-.105.477-.574.493-.598.011-.019.039-.062.046-.089a.084.084 0 0 0-.07-.098c-.035-.008-.062.012-.086.035-.023.023-.371.484-.629.531-.058-.008-.121-.039-.289-.039h-.062c-.164 0-.227.031-.285.039-.262-.047-.61-.508-.633-.531-.02-.023-.051-.043-.086-.035a.08.08 0 0 0-.067.098c.004.027.032.07.047.089.012.024.317.493.493.598.171.102.175.059.191.211l.019.445-.062 1.305c0 .012 0 .074.004.074.019.055.066.098.129.098a.142.142 0 0 0 .129-.09l.152-1.063m5.906-4.16a.531.531 0 0 0-.133-.738L7.261.931c-.504-.348-1.262-.348-1.762 0L.605 4.333a.531.531 0 0 0 .605.871l4.891-3.402c.136-.098.418-.098.554 0l4.891 3.402a.532.532 0 0 0 .738-.133zm0 0" clip-path="url(#b)" fill="#010002"/></svg>