<svg xmlns="http://www.w3.org/2000/svg" xmlns:xlink="http://www.w3.org/1999/xlink" viewBox="0 0 513.071 513.071" fill="#71bfec"><defs><path id="a" d="M-.105 1.48h512v512h-512z"/></defs><clipPath id="b"><use xlink:href="#a" overflow="visible"/></clipPath><path d="M316.887 1.48c-107.527 0-195.008 87.48-195.008 195.008 0 37.496 10.649 72.547 29.063 102.308L13.055 436.683c-17.547 17.547-17.547 46.094 0 63.637 17.543 17.547 46.09 17.547 63.637 0l137.887-137.887c29.761 18.414 64.812 29.063 102.308 29.063 107.528 0 195.008-87.481 195.008-195.008 0-107.528-87.48-195.008-195.008-195.008zM55.477 479.109c-5.848 5.848-15.363 5.848-21.207 0-5.848-5.848-5.852-15.363 0-21.211l81.398-81.402 21.211 21.211-81.402 81.402zM158.09 376.492l-21.207-21.207 31.985-31.985a196.084 196.084 0 0 0 21.211 21.207l-31.989 31.985zm158.797-14.996c-90.984 0-165.008-74.024-165.008-165.008 0-90.985 74.024-165.008 165.008-165.008 90.985 0 165.008 74.023 165.008 165.008 0 90.984-74.023 165.008-165.008 165.008zm0 0" clip-path="url(#b)"/><path d="M316.887 61.484c-57.898 0-105.004 47.101-105.004 105.004 0 20.402 5.86 40.187 16.946 57.215.5.769-4.539-6.035 76.043 101.773a15.008 15.008 0 0 0 24.031 0c80.547-107.766 75.531-100.988 76.043-101.773 11.086-17.028 16.945-36.813 16.945-57.215 0-57.903-47.105-105.004-105.004-105.004zm63.168 145.461l-63.168 84.496-63.168-84.496c-7.746-12.059-11.836-26.039-11.836-40.457 0-41.36 33.649-75.004 75.004-75.004 41.356 0 75.004 33.644 75.004 75.004 0 14.418-4.094 28.398-11.836 40.457zm0 0"/><path d="M316.887 121.484c-24.812 0-45.004 20.187-45.004 45.004 0 24.812 20.192 45 45.004 45 24.813 0 45-20.188 45-45 0-24.817-20.187-45.004-45-45.004zm0 60.004c-8.273 0-15-6.731-15-15 0-8.274 6.727-15 15-15 8.27 0 15 6.726 15 15 0 8.269-6.73 15-15 15zm0 0"/></svg>