<svg xmlns="http://www.w3.org/2000/svg" viewBox="0 0 93.543 93.543" fill="#fff"><path d="M92.457 71.823c-.258-.782-1.91-1.934-4.953-3.453a157.46 157.46 0 0 0-3.515-1.954 329.085 329.085 0 0 1-4.141-2.285 127.618 127.618 0 0 1-3.488-2.019 90.698 90.698 0 0 0-1.629-1.141c-.91-.629-1.684-1.094-2.313-1.398-.629-.305-1.25-.457-1.859-.457-.867 0-1.953.617-3.258 1.855a31.824 31.824 0 0 0-3.582 4.043 39.198 39.198 0 0 1-3.453 4.039c-1.219 1.242-2.219 1.86-3 1.86-.391 0-.879-.11-1.469-.325a15.128 15.128 0 0 1-1.336-.554c-.301-.153-.824-.457-1.562-.914a36.666 36.666 0 0 0-1.239-.75c-5.953-3.301-11.058-7.082-15.316-11.34-4.258-4.258-8.039-9.364-11.34-15.317-.043-.09-.293-.5-.75-1.238s-.762-1.262-.914-1.566c-.152-.305-.336-.75-.555-1.336-.214-.586-.324-1.075-.324-1.465 0-.781.621-1.781 1.86-3a39.626 39.626 0 0 1 4.039-3.453 31.934 31.934 0 0 0 4.039-3.582c1.242-1.305 1.859-2.391 1.859-3.262 0-.606-.152-1.227-.457-1.856-.305-.632-.769-1.402-1.402-2.316a78.951 78.951 0 0 0-1.141-1.629 151.927 151.927 0 0 1-2.019-3.484 362.68 362.68 0 0 1-2.282-4.141 156.164 156.164 0 0 0-1.953-3.519c-1.523-3.039-2.672-4.692-3.457-4.953-.301-.129-.758-.196-1.367-.196-1.172 0-2.703.219-4.594.653-1.89.433-3.379.89-4.465 1.367-2.175.914-4.476 3.562-6.91 7.953C1.996 14.772.887 18.815.887 22.811c0 1.172.074 2.312.227 3.422.152 1.109.425 2.359.816 3.75.391 1.39.707 2.422.945 3.094.239.671.684 1.878 1.336 3.617.653 1.738 1.043 2.801 1.172 3.195 1.524 4.258 3.324 8.059 5.41 11.406 3.43 5.559 8.114 11.309 14.047 17.239 5.93 5.929 11.676 10.613 17.238 14.046 3.344 2.086 7.149 3.891 11.407 5.411.39.129 1.457.519 3.195 1.172a232.15 232.15 0 0 0 3.613 1.335c.676.243 1.707.555 3.098.95 1.391.39 2.641.66 3.75.812 1.105.153 2.246.231 3.418.231 4 0 8.039-1.11 12.125-3.325 4.387-2.433 7.039-4.738 7.949-6.91.481-1.086.934-2.574 1.371-4.465.434-1.89.653-3.421.653-4.593 0-.61-.067-1.067-.2-1.375zm0 0"/></svg>