<svg xmlns="http://www.w3.org/2000/svg" xmlns:xlink="http://www.w3.org/1999/xlink" viewBox="0 0 513.071 513.071" width="34" height="34" fill="#fff"><defs><path id="a" d="M-.105 1.48h512v512h-512z"/></defs><clipPath id="b"><use xlink:href="#a" overflow="visible"/></clipPath><path d="M410.817 314.679c-17.586-17.586-46.047-17.586-63.637 0l-28.926 28.926c-13.32 13.324-34.882 13.324-48.207 0L169.77 243.332c-13.293-13.293-13.293-34.922 0-48.211l28.926-28.926c17.586-17.586 17.59-46.051 0-63.637l-63.637-63.637c-17.508-17.511-45.973-17.546-63.527-.113L50.438 59.113c-.406.332-.797.683-1.176 1.066-68.754 69.352-62.222 171.02-1.883 231.363l174.457 174.391c31.633 31.633 73.184 47.449 114.739 47.449 41.554 0 83.105-15.816 114.738-47.449.062-.066.125-.129.187-.191l23.055-23.891c17.488-17.594 17.449-45.984-.101-63.535l-63.637-63.637zm-21.211 21.211l63.637 63.641c5.863 5.859 5.863 15.347 0 21.211l-.188.187-10.23 10.606-85.035-85.039 10.605-10.606c5.859-5.859 15.348-5.859 21.211 0zM92.633 60.132c5.848-5.847 15.364-5.847 21.211 0l63.637 63.637c5.863 5.863 5.863 15.348 0 21.211l-10.648 10.652-85.418-84.695L92.43 60.335c.067-.07.137-.136.203-.203zm150.414 384.586L68.59 270.328c-48.656-48.66-51.39-126.11-8.226-178.02l85.363 84.641c-22.105 25.144-21.172 63.593 2.832 87.593L248.836 364.82c24.039 24.039 62.411 25.047 87.637 2.789l85.004 85c-51.914 43.519-129.641 40.898-178.43-7.891zm0 0" clip-path="url(#b)"/><path d="M316.903 1.48c-8.281 0-15 6.715-15 15 0 8.281 6.719 15 15 15 90.976 0 164.992 74.016 164.992 164.992 0 8.285 6.719 15 15 15 8.285 0 15-6.715 15-15 0-107.519-87.473-194.992-194.992-194.992zm0 0"/><path d="M316.903 91.476c57.894 0 104.996 47.102 104.996 104.996 0 8.285 6.715 15 15 15s15-6.715 15-15c0-74.437-60.559-134.996-134.996-134.996-8.281 0-15 6.719-15 15 0 8.285 6.715 15 15 15zm0 0"/><path d="M316.903 151.472c24.812 0 45 20.188 45 45 0 8.285 6.715 15 15 15 8.281 0 14.996-6.715 14.996-15 0-41.355-33.641-74.996-74.996-74.996-8.281 0-15 6.715-15 15 0 8.281 6.715 14.996 15 14.996zm0 0"/></svg>