<svg xmlns="http://www.w3.org/2000/svg" viewBox="0 0 513.071 513.071" fill="#71bfec"><path d="M14.895 513.48h271a15.04 15.04 0 0 0 10.602-4.391c.003 0 .003 0 .003-.004l91-91a15.115 15.115 0 0 0 4.395-10.605v-391c0-8.285-6.715-15-15-15h-362c-8.285 0-15 6.715-15 15v482c0 8.285 6.715 15 15 15zm286-51.215V422.48h39.785l-39.785 39.785zm-271-430.785h332v361h-76c-8.285 0-15 6.715-15 15v76h-241v-452zm0 0"/><path d="M75.895 272.48h240c8.285 0 15-6.715 15-15v-180c0-8.285-6.715-15-15-15h-240c-8.285 0-15 6.715-15 15v180c0 8.285 6.715 15 15 15zm15-68.785l30-30 53.785 53.785-15 15H90.895v-38.785zM202.11 242.48l68.785-68.785 30 30v38.785H202.11zm98.785-150v68.785l-19.395-19.39c-5.855-5.86-15.355-5.86-21.21 0l-64.395 64.39-64.395-64.39c-5.855-5.86-15.355-5.86-21.21 0l-19.395 19.39V92.48h210zm0 0"/><path d="M195.895 167.48c16.543 0 30-13.457 30-30s-13.457-30-30-30-30 13.457-30 30 13.457 30 30 30zm120 135h-180c-8.285 0-15 6.715-15 15s6.715 15 15 15h180c8.285 0 15-6.715 15-15s-6.715-15-15-15zm-225 15c0 8.285-6.715 15-15 15s-15-6.715-15-15 6.715-15 15-15 15 6.715 15 15zm45 45c-8.285 0-15 6.715-15 15s6.715 15 15 15h90c8.285 0 15-6.715 15-15s-6.715-15-15-15h-90zm-45 15c0 8.285-6.715 15-15 15s-15-6.715-15-15 6.715-15 15-15 15 6.715 15 15zm135 45h-90c-8.285 0-15 6.715-15 15s6.715 15 15 15h90c8.285 0 15-6.715 15-15s-6.715-15-15-15zm-135 15c0 8.285-6.715 15-15 15s-15-6.715-15-15 6.715-15 15-15 15 6.715 15 15zm406-436h-60c-8.285 0-15 6.715-15 15v391c0 2.297.527 4.559 1.539 6.621l28.461 57.867v26.512c0 8.285 6.715 15 15 15s15-6.715 15-15v-26.512l28.461-57.871a14.99 14.99 0 0 0 1.539-6.617v-391c0-8.285-6.715-15-15-15zm-45 91h30v270h-30v-270zm30-61v31h-30v-31h30zm-15 403.012l-15-30.5V392.48h30v11.512l-15 30.5zm0 0"/></svg>