<svg xmlns="http://www.w3.org/2000/svg" xmlns:xlink="http://www.w3.org/1999/xlink" viewBox="0 0 178.583 243.78" fill="#71bfec"><defs><path id="a" d="M.371.45h177.84v242.88H.371z"/></defs><clipPath id="b"><use xlink:href="#a" overflow="visible"/></clipPath><path d="M176.613 91.331a25.536 25.536 0 0 0-2.863-23.559l-3.363-4.871a14.37 14.37 0 0 1-2.43-6.414l-.715-5.879a25.53 25.53 0 0 0-13.48-19.527l-5.243-2.754a14.378 14.378 0 0 1-5.136-4.547l-3.36-4.871a25.537 25.537 0 0 0-21.015-11.031h-5.918c-2.313 0-4.614-.567-6.66-1.641l-5.243-2.75a25.527 25.527 0 0 0-23.73 0l-5.242 2.75a14.397 14.397 0 0 1-6.66 1.641h-5.922a25.532 25.532 0 0 0-21.012 11.031l-3.363 4.871a14.386 14.386 0 0 1-5.137 4.547l-5.238 2.754a25.533 25.533 0 0 0-13.485 19.531l-.711 5.875a14.433 14.433 0 0 1-2.433 6.414l-3.363 4.871a25.535 25.535 0 0 0-2.86 23.559l2.098 5.535a14.4 14.4 0 0 1 .828 6.809l-.715 5.878a25.527 25.527 0 0 0 8.414 22.188l4.434 3.926a14.334 14.334 0 0 1 3.894 5.644l2.102 5.535a25.518 25.518 0 0 0 11.797 13.438l-23.125 56.414a5.604 5.604 0 0 0 1.195 6.063 5.594 5.594 0 0 0 6.043 1.269l25.508-10.082 11.09 25.086a5.598 5.598 0 0 0 5.121 3.336h.074a5.608 5.608 0 0 0 5.109-3.477l23.422-57.136 23.426 57.136a5.6 5.6 0 0 0 5.105 3.477h.075a5.599 5.599 0 0 0 5.121-3.336l11.09-25.086 25.507 10.082a5.596 5.596 0 0 0 7.239-7.332l-23.125-56.414a25.522 25.522 0 0 0 11.797-13.438l2.101-5.535a14.367 14.367 0 0 1 3.895-5.644l4.433-3.926a25.527 25.527 0 0 0 8.414-22.188l-.715-5.878a14.387 14.387 0 0 1 .829-6.809l2.101-5.535zm-18.054 32.027l-4.43 3.926a25.636 25.636 0 0 0-6.946 10.059l-2.097 5.535a14.335 14.335 0 0 1-9.973 8.832l-5.746 1.418c-4 .984-7.738 2.949-10.82 5.679l-4.434 3.926a14.347 14.347 0 0 1-12.933 3.188l-5.747-1.418c-4-.985-8.226-.985-12.222 0l-5.746 1.418a14.332 14.332 0 0 1-12.934-3.188l-4.433-3.926a25.63 25.63 0 0 0-10.821-5.679l-5.746-1.418a14.331 14.331 0 0 1-9.972-8.832l-2.102-5.535a25.582 25.582 0 0 0-6.941-10.059l-4.43-3.926a14.315 14.315 0 0 1-4.723-12.453l.711-5.879a25.61 25.61 0 0 0-1.473-12.129l-2.097-5.535a14.33 14.33 0 0 1 1.605-13.226l3.364-4.872a25.613 25.613 0 0 0 4.332-11.425l.714-5.879a14.33 14.33 0 0 1 7.567-10.961l5.242-2.754a25.616 25.616 0 0 0 9.148-8.102l3.364-4.871a14.321 14.321 0 0 1 11.793-6.191h5.922c4.117 0 8.218-1.012 11.863-2.926l5.242-2.75a14.338 14.338 0 0 1 13.324 0l5.239 2.75a25.639 25.639 0 0 0 11.867 2.926h5.922c4.707 0 9.117 2.312 11.793 6.187l3.363 4.875a25.633 25.633 0 0 0 9.148 8.102l5.243 2.754a14.338 14.338 0 0 1 7.566 10.961l.715 5.879a25.6 25.6 0 0 0 4.332 11.425l3.363 4.872a14.326 14.326 0 0 1 1.606 13.222l-2.102 5.539a25.659 25.659 0 0 0-1.469 12.129l.711 5.879a14.333 14.333 0 0 1-4.722 12.453zm-25.309 78.199a5.599 5.599 0 0 0-7.18 2.942l-7.949 17.984-18.645-45.48a25.496 25.496 0 0 0 22.063-5.887l4.434-3.926a14.357 14.357 0 0 1 6.074-3.187l1.027-.254 18.461 45.035-18.285-7.227zm-80.676 2.942a5.604 5.604 0 0 0-7.183-2.942l-18.282 7.227 18.461-45.035 1.028.254a14.363 14.363 0 0 1 6.074 3.187l4.433 3.926a25.522 25.522 0 0 0 16.93 6.422c1.711 0 3.43-.184 5.133-.535l-18.645 45.48-7.949-17.984zm0 0" clip-path="url(#b)"/><path d="M89.32 150.464c33.863 0 61.414-27.551 61.414-61.414 0-33.864-27.551-61.414-61.414-61.414S27.91 55.186 27.91 89.05c0 33.863 27.547 61.414 61.41 61.414zm0-111.625c27.688 0 50.215 22.523 50.215 50.211 0 27.687-22.523 50.214-50.215 50.214-27.687 0-50.211-22.527-50.211-50.214 0-27.688 22.528-50.211 50.211-50.211zm0 0"/><path d="M63.199 121.085h52.246a5.602 5.602 0 0 0 5.602-5.602V82.315c0-1.758-.824-3.41-2.227-4.469L92.695 58.143a5.607 5.607 0 0 0-6.746 0L59.828 77.846a5.59 5.59 0 0 0-2.23 4.469v33.168a5.601 5.601 0 0 0 5.601 5.602zm5.598-35.977l20.523-15.48 20.528 15.48v24.778H95.297V98.745a2.648 2.648 0 0 0-2.649-2.645h-6.652a2.647 2.647 0 0 0-2.648 2.645v11.141H68.797V85.108zm0 0"/></svg>