<svg xmlns="http://www.w3.org/2000/svg" xmlns:xlink="http://www.w3.org/1999/xlink" viewBox="0 0 192.756 206.929" width="35" height="36" fill="#fff"><defs><path id="a" d="M.738 1.41h190.8v205.92H.738z"/></defs><clipPath id="b"><use xlink:href="#a" overflow="visible"/></clipPath><path d="M191.148 129.749c0-6.063-4.933-11-11-11h-18.273V87.667a5.606 5.606 0 0 0-2.227-4.473L84.679 26.663a5.595 5.595 0 0 0-6.746 0L2.968 83.194a5.598 5.598 0 0 0-2.23 4.473v95.18a5.602 5.602 0 0 0 5.602 5.601h87.281v6.922c0 6.066 4.933 11 11 11h75.527c6.067 0 11-4.934 11-11v-14.672c0-1.965-.523-3.805-1.426-5.402a10.918 10.918 0 0 0 1.426-5.399v-14.675c0-1.961-.523-3.801-1.426-5.399a10.937 10.937 0 0 0 1.426-5.398v-14.676zm-86.328 51.148h75.129v14.274H104.82v-14.274zM11.937 90.46l69.371-52.313 69.368 52.313v28.293h-46.055c-6.067 0-11 4.933-11 10.996v14.676c0 1.965.523 3.804 1.426 5.402a10.917 10.917 0 0 0-1.426 5.398v14.676c0 1.961.523 3.801 1.426 5.399a10.895 10.895 0 0 0-.864 1.949H11.937V90.46zm168.012 79.238H104.82v-14.273h75.129v14.273zm0-25.473H104.82v-14.273h75.129v14.273zm0 0" clip-path="url(#b)"/><path d="M9.711 68.292L81.308 14.3l71.594 53.992a5.579 5.579 0 0 0 3.367 1.129c1.699 0 3.375-.77 4.477-2.231a5.6 5.6 0 0 0-1.098-7.843L84.679 2.815a5.607 5.607 0 0 0-6.746 0L2.968 59.347a5.598 5.598 0 0 0-1.101 7.843 5.605 5.605 0 0 0 7.844 1.102zm0 0" clip-path="url(#b)"/></svg>