<svg xmlns="http://www.w3.org/2000/svg" viewBox="-49 141 512 512" width="47" height="47" fill="#fff"><path d="M15 343.667H-6.333v-85.333c0-17.673 14.327-32 32-32h256v21.333h-256c-5.891 0-10.667 4.776-10.667 10.667v85.333zm117.333 224H25.667c-17.673 0-32-14.327-32-32V429H15v106.667c0 5.891 4.776 10.667 10.667 10.667h106.667v21.333z"/><path d="M220.717 653a10.67 10.67 0 0 1-7.541-3.125L-45.875 390.824c-4.164-4.165-4.164-10.917 0-15.083l60.949-60.949c4.165-4.164 10.917-4.164 15.083 0l259.051 259.051c4.164 4.165 4.164 10.917 0 15.083l-60.949 60.949c-2 2-4.713 3.124-7.542 3.125zM-23.251 383.283l243.968 243.968 45.867-45.867L22.616 337.416l-45.867 45.867z"/><path d="M420.333 631.667h-32c-5.891 0-10.667-4.776-10.667-10.667v-53.333H260.333v-21.333h160C443.898 546.333 463 565.436 463 589c0 23.564-19.102 42.667-42.667 42.667zM399 610.333h21.333c11.782 0 21.333-9.551 21.333-21.333 0-11.782-9.551-21.333-21.333-21.333H399v42.666z"/><path d="M463 589h-21.333V269c0-11.782-9.551-21.333-21.333-21.333H367v-21.333h53.333C443.898 226.333 463 245.436 463 269v320zM114.125 474.79l32.003-32.002 15.085 15.084-32.003 32.003zm-42.664-42.666l32.003-32.003 15.085 15.085-32.003 32.003zm85.308 85.333l32.003-32.002 15.084 15.084-32.002 32.003zm42.686 42.688l32.003-32.002 15.085 15.084-32.003 32.003zM28.764 389.458l32.002-32.003 15.085 15.084-32.003 32.003z"/><path d="M241.357 374.877a10.592 10.592 0 0 1-7.541-3.125l-44.235-44.235c-4.164-4.165-4.164-10.917 0-15.083l162.197-162.197c12.473-11.907 32.103-11.907 44.576 0l14.741 14.741c12.309 12.301 12.316 32.252.015 44.561l-.015.015-162.196 162.198a10.663 10.663 0 0 1-7.542 3.125zm-29.152-54.901l29.152 29.152 154.667-154.667c3.979-3.977 3.981-10.427.005-14.406l-.005-.005-14.752-14.731a10.42 10.42 0 0 0-14.4 0L212.205 319.976z"/><path d="M175 397c-5.891.001-10.668-4.773-10.669-10.664 0-1.146.184-2.285.547-3.373L187 316.605l20.267 6.752-15.371 46.112 46.037-15.371 6.752 20.267-66.357 22.123A10.832 10.832 0 0 1 175 397zm147.28-202.197l15.084-15.085 44.236 44.236-15.085 15.085z"/><path d="M175 375.667h160V397H175zm181.333 0h21.333V397h-21.333zm42.667 0h21.333V397H399z"/></svg>