<svg xmlns="http://www.w3.org/2000/svg" xmlns:xlink="http://www.w3.org/1999/xlink" viewBox="0 0 513.071 507.402" fill="#71bfec"><defs><path id="a" d="M.535.201h512v507h-512z"/></defs><clipPath id="b"><use xlink:href="#a" overflow="visible"/></clipPath><path d="M460.875 337.881l35.027-35.032c22.176-22.171 22.18-58.253.004-80.437a56.831 56.831 0 0 0-23.707-14.227c7.141-9.699 11.004-21.375 11.004-33.644 0-15.192-5.918-29.477-16.664-40.219-10.738-10.742-25.024-16.66-40.219-16.66-.637 0-1.273.012-1.91.031.496-15.183-5.035-30.535-16.602-42.105-11.566-11.563-26.937-17.102-42.097-16.598.019-.633.031-1.273.031-1.91 0-15.195-5.918-29.477-16.66-40.219-22.172-22.172-58.254-22.176-80.438 0l-12.109 12.11-12.105-12.106C233.687 6.119 219.402.201 204.207.201c-15.192 0-29.473 5.918-40.215 16.656-11.57 11.571-17.09 26.926-16.586 42.121-.641-.023-1.281-.047-1.922-.047-15.191 0-29.476 5.915-40.226 16.657-11.567 11.574-17.086 26.929-16.582 42.121a51.838 51.838 0 0 0-1.93-.047c-15.191 0-29.477 5.918-40.211 16.656-10.746 10.742-16.664 25.028-16.664 40.223 0 12.265 3.859 23.941 11.004 33.637-8.86 2.671-16.981 7.507-23.711 14.234-22.121 22.129-22.172 58.098-.149 80.281.055.059.11.113.165.172l35.078 35.07c.047.051.097.102.148.153a57.76 57.76 0 0 0 6.715 5.75l-10.375 10.375c-10.09 10.09-15.231 23.836-14.469 38.707.727 14.277 6.871 27.879 17.293 38.301l59.332 59.335c11.008 11.004 25.461 16.508 39.918 16.508s28.914-5.504 39.918-16.508l27.578-27.582a182.23 182.23 0 0 0 38.227 4.071c12.816 0 25.637-1.364 38.215-4.063l27.57 27.574c11.008 11.004 25.461 16.508 39.918 16.508 14.453-.004 28.914-5.504 39.918-16.508l59.336-59.335c22.008-22.008 24.508-55.321 5.57-74.262l-12.637-12.637 6.235-6.238c.07-.067.137-.133.207-.203zM185.699 38.568c4.945-4.945 11.52-7.668 18.512-7.668s13.566 2.723 18.512 7.668l46.98 46.981c10.207 10.211 10.207 26.82 0 37.027-4.945 4.945-11.52 7.668-18.508 7.668h-.004c-6.992-.004-13.562-2.723-18.508-7.668l-46.972-46.973c-.039-.039-.074-.078-.117-.113-10.102-10.223-10.067-26.754.105-36.922zm-58.801 95.684c-10.136-10.215-10.113-26.774.067-36.953 4.949-4.946 11.527-7.668 18.519-7.668 6.985 0 13.551 2.718 18.496 7.66.004 0 .008.004.008.008.02.015.035.031.051.047l46.926 46.925c.027.032.062.063.093.094l11.661 11.66c4.945 4.946 7.671 11.52 7.671 18.516 0 6.992-2.722 13.566-7.667 18.508-4.946 4.945-11.52 7.668-18.512 7.668s-13.567-2.723-18.508-7.668c-.063-.063-.125-.121-.188-.18l-11.511-11.516a.573.573 0 0 1-.047-.05l-46.988-46.981-.071-.07zm-58.652 21.773c4.941-4.941 11.512-7.664 18.504-7.664 6.992 0 13.566 2.723 18.512 7.668l47.035 47.035c10.156 10.211 10.136 26.782-.047 36.973-4.945 4.941-11.524 7.664-18.516 7.664s-13.566-2.723-18.508-7.668c-.062-.059-.121-.121-.183-.18L68.39 193.201l-.148-.152c-4.945-4.946-7.668-11.516-7.668-18.508-.004-6.992 2.723-13.567 7.672-18.516zM39.031 281.303a5.018 5.018 0 0 0-.176-.18c-10.187-10.207-10.179-26.801.02-37 4.945-4.945 11.519-7.668 18.512-7.668 6.992 0 13.57 2.723 18.515 7.672l35.235 35.23c10.207 10.207 10.207 26.817.003 37.024-4.945 4.945-11.519 7.668-18.507 7.668h-.004a26.68 26.68 0 0 1-3.805-.274c-.094-.019-.187-.031-.281-.047-5.391-.839-10.367-3.332-14.317-7.234-.039-.043-.082-.082-.121-.125l-35.074-35.066zm178.453 149.933c-.133-.035-.261-.051-.39-.082a16.155 16.155 0 0 0-.922-.199c-.227-.039-.453-.066-.684-.098-.254-.031-.508-.062-.765-.082-.27-.023-.54-.035-.809-.039-.219-.008-.434-.012-.652-.008-.289.004-.575.02-.86.043-.207.016-.414.032-.621.055-.281.031-.558.074-.836.121-.219.035-.433.078-.652.125-.254.055-.504.113-.754.184-.238.062-.477.133-.715.207-.223.074-.437.152-.656.23-.254.098-.508.196-.754.305-.199.086-.399.18-.594.273-.25.121-.496.246-.738.383-.199.109-.395.227-.59.348-.219.137-.441.273-.656.422-.219.152-.434.312-.645.476-.176.133-.347.266-.519.406-.25.211-.489.43-.723.657-.09.086-.187.16-.277.25l-33.637 33.636c-10.043 10.043-26.379 10.043-36.422 0l-59.332-59.332c-5.039-5.039-8.004-11.488-8.344-18.164-.308-6.082 1.649-11.562 5.52-15.429l21.195-21.2c.324.004.649.024.977.024h.004c15.187 0 29.468-5.918 40.214-16.66 16.442-16.446 20.68-40.532 12.735-60.93 10.672-2.25 20.48-7.523 28.379-15.414a56.605 56.605 0 0 0 16.047-32.117 57.122 57.122 0 0 0 14.203 1.789h.004c15.187 0 29.468-5.914 40.215-16.656 10.742-10.743 16.66-25.028 16.66-40.219 0-4.848-.61-9.602-1.778-14.18 12.11-1.719 23.297-7.273 32.098-16.082 22.176-22.172 22.176-58.254.004-80.433l-13.172-13.172 12.109-12.106c10.211-10.207 26.821-10.207 37.024-.004 4.945 4.946 7.668 11.52 7.668 18.512 0 6.992-2.723 13.566-7.668 18.512a15.305 15.305 0 0 0-4.496 10.855c0 3.926 1.496 7.856 4.496 10.852 5.996 5.996 15.711 5.996 21.707 0 10.203-10.203 26.812-10.207 37.023 0 10.207 10.211 10.203 26.82-.004 37.027a15.305 15.305 0 0 0-4.496 10.852 15.28 15.28 0 0 0 4.496 10.851c5.996 5.996 15.711 5.996 21.707.004 4.946-4.945 11.524-7.668 18.516-7.672 6.992 0 13.566 2.723 18.508 7.668 4.949 4.949 7.672 11.524 7.672 18.516 0 6.898-2.653 13.39-7.473 18.308-.07.071-.141.137-.207.207l-22.012 22.016c-5.48 5.481-6.015 14.188-1.246 20.297l.789 1.012c4.758 6.097 13.313 7.699 19.953 3.742 10.293-6.133 23.407-4.488 31.891 3.992 10.207 10.211 10.207 26.82 0 37.027l-35.23 35.227-.204.211-75.621 75.621c-37.941 37.941-93.754 52.898-145.66 39.035zm227.883-52.57c6.73 6.734 4.129 21.152-5.57 30.851l-59.336 59.332c-10.043 10.043-26.379 10.043-36.422 0l-16.328-16.328a181.688 181.688 0 0 0 57.14-38.613l47.875-47.879 12.641 12.637zm0 0" clip-path="url(#b)"/></svg>